<svg preserveAspectRatio="none" width="100%" height="100%" overflow="visible" style="display: block;" viewBox="0 0 32 32" fill="none" xmlns="http://www.w3.org/2000/svg">
<g id="light-mode">
<path id="Vector" fill-rule="evenodd" clip-rule="evenodd" d="M16 10.4672C12.8704 10.4672 10.3333 12.9627 10.3333 16.041C10.3333 19.1193 12.8704 21.6147 16 21.6147C19.1296 21.6147 21.6667 19.1193 21.6667 16.041C21.6667 12.9627 19.1296 10.4672 16 10.4672ZM8.33333 16.041C8.33333 11.8762 11.7658 8.49999 16 8.49999C20.2341 8.49999 23.6667 11.8762 23.6667 16.041C23.6667 20.2057 20.2341 23.582 16 23.582C11.7658 23.582 8.33333 20.2057 8.33333 16.041ZM16 1.94262C16.5523 1.94262 17 2.383 17 2.92623V5.54917C17 6.09238 16.5523 6.53277 16 6.53277C15.4477 6.53277 15 6.09238 15 5.54917V2.92623C15 2.383 15.4477 1.94262 16 1.94262ZM16 25.5492C16.5523 25.5492 17 25.9896 17 26.5328V29.1557C17 29.6989 16.5523 30.1393 16 30.1393C15.4477 30.1393 15 29.6989 15 29.1557V26.5328C15 25.9896 15.4477 25.5492 16 25.5492ZM28.4128 8.99195C28.6889 9.4624 28.5251 10.064 28.0468 10.3356L25.7373 11.6471C25.259 11.9187 24.6475 11.7575 24.3713 11.287C24.0952 10.8166 24.259 10.215 24.7373 9.9434L27.0468 8.63192C27.5251 8.36034 28.1366 8.52149 28.4128 8.99195ZM7.62891 20.7952C7.90507 21.2656 7.74117 21.8672 7.26288 22.1388L4.95349 23.4503C4.47519 23.7219 3.86361 23.5607 3.58746 23.0903C3.31132 22.6199 3.47519 22.0183 3.95349 21.7467L6.26288 20.4352C6.74117 20.1636 7.35275 20.3248 7.62891 20.7952ZM3.58727 8.99168C3.86341 8.52128 4.475 8.36008 4.9533 8.63171L7.26272 9.94319C7.74101 10.2148 7.90485 10.8164 7.62875 11.2868C7.35259 11.7572 6.74101 11.9184 6.26272 11.6468L3.9533 10.3353C3.475 10.0637 3.31112 9.46214 3.58727 8.99168ZM24.371 20.795C24.6472 20.3245 25.2588 20.1634 25.7371 20.4349L28.0465 21.7464C28.5248 22.018 28.6886 22.6196 28.4125 23.09C28.1364 23.5604 27.5248 23.7217 27.0465 23.45L24.7371 22.1385C24.2588 21.867 24.0949 21.2654 24.371 20.795Z" fill="var(--fill-0, #9E9E9E)"/>
</g>
</svg>
